<svg width="120" height="112" viewBox="0 0 120 112" fill="none" xmlns="http://www.w3.org/2000/svg">
<path d="M26.75 81.3867C-23.5295 2.48891 18.9588 7.66569 42.1715 23.6557C47.9465 28.6502 40.8881 27.6097 35.252 27.0315C6.05205 24.0356 11 44.8 26.75 74.9621C29.195 79.6444 29.2878 85.3689 26.75 81.3867Z" fill="#FF0331"/>
<path d="M74.8284 84.7202C156.422 -9.17085 108.891 -11.4427 76.2978 13.4595C67.3048 20.3304 76.2978 18.1585 81.0762 16.9269C132.563 3.6567 76.5238 76.7839 73.218 80.4157C69.9123 84.0475 71.3393 88.4866 74.8284 84.7202Z" fill="#FF0331"/>
<path d="M55.2873 41.2525C56.9556 39.5962 57.5175 34.3893 55.2873 35.7683C52.7793 37.3192 38.7 49.8315 32.1715 50.2128C30.2513 50.4034 29.8673 51.8971 25.4152 51.166C23.9148 50.9197 21.7811 52.3876 20.4585 53.2631C17.1985 55.4209 2.46342 73.8039 0.775595 76.4147C-2.04942 80.7845 3.71592 78.7467 4.19351 78.2139C5.23248 77.0548 6.64149 75.3229 8.19654 73.4116L8.19658 73.4115C12.7768 67.7819 19.0673 62.7532 20.4585 64.0562C22.2306 65.716 23.5308 71.4214 23.9148 74.4246C24.2988 77.4278 37.9319 75.7591 38.892 72.8994V59.745C38.892 57.076 39.2072 53.968 50.797 45.0654C52.0551 44.0473 54.4453 42.0886 55.2873 41.2525Z" fill="#3D4253"/>
<path d="M25.8356 74.5439C28.5196 75.1699 34.385 76.2061 37.5305 72.9622C38.9248 71.5243 38.537 72.2057 38.9248 73.4416C39.8906 76.5196 48.823 105.617 48.6448 109.227C48.4532 113.109 45.3113 111.847 44.8132 110.586C44.3978 109.534 43.6443 106.895 42.7053 103.607C40.3455 95.3438 36.7635 82.9832 34.5374 81.3974C33.8877 81.0337 32.544 80.573 31.011 81.0958C27.917 82.358 23.8133 96.3769 21.3326 104.851C20.5217 107.621 19.8842 109.799 19.5122 110.745C19.0138 112.012 15.8695 113.279 15.6778 109.38C15.6027 107.854 16.8001 104.924 18.22 99.6511C20.0839 92.7305 24.3022 77.9954 23.9177 74.9328C23.8982 73.9231 24.2435 74.1727 25.8356 74.5439Z" fill="#3D4253"/>
<path d="M32.1561 46.6066C32.2227 49.4214 31.1473 51.9372 27.5914 51.9592C24.384 52.2253 22.3616 44.5667 22.8198 44.5287C23.1864 44.4983 24.3475 42.5604 24.8822 41.5953L30.8389 41.101C31.2928 42.0925 31.701 43.3309 31.9394 44.613C32.2314 44.8221 32.75 45.0489 33 45.2977C33.25 45.5466 32.7299 46.2006 32.1561 46.6066Z" fill="#3D4253"/>
<path d="M23.765 48.031C22.8536 48.3536 20.1391 41.3402 24.8738 39.1918C29.2796 37.1927 30.1384 37.9635 29.3714 38.8972C30.4525 38.8074 31.6216 39.2838 31.0811 41.4376C30.8108 42.2453 24.7768 42.128 25.5801 45.6689C25.7426 46.3849 24.9257 47.6202 23.765 48.031Z" fill="#3D4253"/>
<path d="M79.4101 86.7307C77.3617 87.2142 73.7038 86.7307 70.4848 85.5089C69.0939 84.981 69.0304 86.2596 68.7345 87.2142C67.9974 89.5917 62.4875 106.967 62.6235 109.756C62.7697 112.754 65.1675 111.779 65.5476 110.805C65.8647 109.992 66.4398 107.954 67.1564 105.415C68.9573 99.0317 71.1767 92.6507 72.8756 91.4258C73.3714 91.1449 73.9934 90.4471 75.1633 90.8509C77.5246 91.8259 79.1123 99.4438 81.0055 105.989C81.6244 108.129 82.1109 109.811 82.3948 110.542C82.7752 111.521 85.1748 112.499 85.3212 109.488C85.3784 108.309 84.4647 106.046 83.3809 101.973C81.9585 96.6272 80.727 90.0434 81.0204 87.6778C81.0158 87.672 81.0109 87.6664 81.0055 87.6611C81.0204 86.8812 80.6251 86.4439 79.4101 86.7307Z" fill="#3D4253"/>
<path d="M80.4903 84.429C78.7958 84.6403 73.3427 84.1784 70.535 82.7381C68.205 84.429 65.1548 91.2019 64.8407 91.9851C64.0642 93.9214 67.2866 94.4501 68.3089 93.8774C69.3313 93.3047 69.9222 93.1805 70.8081 93.9401C72.1488 95.0898 73.4353 96.516 74.4476 96.0422C76.0671 95.2843 76.5185 94.1415 77.7367 95.4197C78.8604 96.5987 80.0667 96.4765 80.9147 95.4197C81.365 94.8585 81.5494 93.9401 82.8203 93.9401C86.2094 94.3629 81.3376 84.0062 80.4903 84.429Z" fill="#3D4253"/>
<path d="M60.944 59.4875C59.757 58.0703 59.6232 54.4235 61.2655 55.6581C63.1123 57.0465 70.5524 64.6125 75.6024 65.338C77.0825 65.6134 77.282 66.8186 80.7915 66.5303C81.9743 66.4331 83.5356 67.7318 84.5057 68.5095C86.897 70.4265 95.9729 83.9437 97.1119 86.1165C99.0182 89.7531 94.4738 87.4768 94.1379 87.0248C93.4071 86.0413 92.9672 85.5556 91.8851 83.9442C88.6979 79.1981 85.0287 75.2532 83.8608 76.1925C82.373 77.3888 80.6639 82.0422 80.415 85.0067C80.1662 87.9711 70.8546 85.6769 70.2979 83.3548C70.6393 79.2874 72.0815 75.9162 72.3217 73.0539C72.4988 70.9448 72.2077 70.2126 63.7884 62.4246C62.8778 61.5384 61.5431 60.2028 60.944 59.4875Z" fill="#3D4253"/>
<path d="M77.2246 61.9051C76.3822 63.9898 76.4843 66.1651 79.1572 67.1592C81.4988 68.2399 85.1781 63.0739 84.8436 62.9195C84.5759 62.796 84.2466 61.0289 84.1153 60.1608L79.7666 58.1539C79.1455 58.7699 78.4895 59.5829 77.949 60.4752C77.6701 60.5512 77.2698 60.5946 77 60.7289C76.5 60.9778 76.9066 61.444 77.2246 61.9051Z" fill="#3D4253"/>
<path d="M78.8696 58.3145C79.0627 59.0979 80.1182 59.779 80.8835 60.7368C82.2874 62.4938 81.7663 64.6667 81.5745 66.3912C81.4449 67.5557 82.3194 69.1609 82.9224 70.1656C83.7314 71.5136 87.7764 77.7139 88.8555 77.9832C89.6647 78.2526 89.3956 76.0957 89.3956 76.0957C89.3956 76.0957 91.7126 78.0667 92.171 78.3617C94.85 80.0854 89.398 67.1979 88.8593 63.9626C88.051 60.188 85.4778 57.6698 83.9738 57.106C80.1891 55.6874 78.572 57.1075 78.8696 58.3145Z" fill="#3D4253"/>
<path d="M47.5335 24.4351C47.5335 23.1274 60.9175 24.2287 62.068 22.5068C63.2184 20.7848 63.5003 10.2857 64.6507 10.2857C65.8011 10.2857 65.0532 20.1246 67.1516 22.5068C69.25 24.8889 74.8758 24.4187 74.8129 25.4005C74.75 26.3823 68.302 25.9687 67.1516 26.734C66.0011 27.4993 65.9896 39.3672 64.4066 39.3672C63.3053 39.3672 63.2184 27.6906 62.068 26.734C60.9176 25.7773 47.5335 25.7427 47.5335 24.4351Z" fill="#FFE600"/>
</svg>
